<svg xmlns="http://www.w3.org/2000/svg" width="1400" height="640" viewBox="0 0 1400 640" role="img" aria-labelledby="title desc">
  <title id="title">Full-width premium animation preview</title>
  <desc id="desc">A wide TYPO3 backend preview component with GreenSock branding, motion controls and headless-ready badges.</desc>
  <defs>
    <linearGradient id="surface" x1="64" y1="76" x2="1336" y2="564" gradientUnits="userSpaceOnUse">
      <stop stop-color="#ecfccb"/>
      <stop offset=".38" stop-color="#f8fafc"/>
      <stop offset="1" stop-color="#e0f2fe"/>
    </linearGradient>
    <radialGradient id="glowA" cx="0" cy="0" r="1" gradientUnits="userSpaceOnUse" gradientTransform="translate(220 136) rotate(44) scale(320 220)">
      <stop stop-color="#84cc16" stop-opacity=".36"/>
      <stop offset="1" stop-color="#84cc16" stop-opacity="0"/>
    </radialGradient>
    <radialGradient id="glowB" cx="0" cy="0" r="1" gradientUnits="userSpaceOnUse" gradientTransform="translate(1138 226) rotate(126) scale(300 220)">
      <stop stop-color="#0f766e" stop-opacity=".28"/>
      <stop offset="1" stop-color="#0f766e" stop-opacity="0"/>
    </radialGradient>
    <filter id="shadow" x="-10%" y="-16%" width="120%" height="132%">
      <feDropShadow dx="0" dy="22" stdDeviation="24" flood-color="#0f172a" flood-opacity=".22"/>
    </filter>
  </defs>

  <rect width="1400" height="640" fill="#111827"/>
  <rect x="64" y="76" width="1272" height="488" rx="18" fill="url(#surface)" stroke="#cbd5e1" stroke-width="2" filter="url(#shadow)"/>
  <rect x="64" y="76" width="1272" height="488" rx="18" fill="url(#glowA)"/>
  <rect x="64" y="76" width="1272" height="488" rx="18" fill="url(#glowB)"/>

  <g transform="translate(100 110)">
    <rect width="116" height="40" rx="20" fill="#ccfbf1" stroke="#0f766e" stroke-width="2"/>
    <text x="58" y="26" text-anchor="middle" font-family="Inter, Arial, sans-serif" font-size="18" font-weight="800" fill="#134e4a">Preview</text>
  </g>

  <g transform="translate(1154 112)">
    <rect width="86" height="34" rx="17" fill="#ecfccb" stroke="#0f766e"/>
    <text x="43" y="23" text-anchor="middle" font-family="Inter, Arial, sans-serif" font-size="16" font-weight="900" fill="#0f766e">GSAP</text>
  </g>

  <g transform="translate(100 188)">
    <rect width="392" height="292" rx="12" fill="#ffffff" fill-opacity=".56" stroke="#94a3b8" stroke-opacity=".45"/>
    <rect x="28" y="28" width="108" height="26" rx="13" fill="#84cc16" fill-opacity=".22"/>
    <text x="82" y="46" text-anchor="middle" font-family="Inter, Arial, sans-serif" font-size="13" font-weight="800" fill="#0f766e">ScrollTrigger</text>
    <text x="28" y="100" font-family="Inter, Arial, sans-serif" font-size="30" font-weight="800" fill="#111827">Animation preview</text>
    <text x="28" y="142" font-family="Inter, Arial, sans-serif" font-size="16" fill="#475569">GSAP with reduced-motion support.</text>
    <line x1="28" y1="182" x2="332" y2="182" stroke="#cbd5e1"/>
    <text x="28" y="212" font-family="Inter, Arial, sans-serif" font-size="16" font-weight="800" fill="#334155">Headless output is automatic.</text>
    <text x="28" y="238" font-family="Inter, Arial, sans-serif" font-size="14" fill="#64748b">Use animationSettingsData in APIs.</text>
    <rect x="28" y="258" width="104" height="30" rx="15" fill="#f8fafc" stroke="#cbd5e1"/>
    <text x="80" y="278" text-anchor="middle" font-family="Inter, Arial, sans-serif" font-size="13" font-weight="800" fill="#64748b">GSAP</text>
    <rect x="144" y="258" width="164" height="30" rx="15" fill="#f8fafc" stroke="#cbd5e1"/>
    <text x="226" y="278" text-anchor="middle" font-family="Inter, Arial, sans-serif" font-size="13" font-weight="800" fill="#64748b">Headless auto</text>
  </g>

  <g transform="translate(524 188)">
    <rect width="776" height="292" rx="12" fill="#ffffff" stroke="#cbd5e1"/>
    <line x1="72" y1="58" x2="704" y2="58" stroke="#0f766e" stroke-width="2" opacity=".55"/>
    <circle cx="178" cy="58" r="8" fill="#0f766e"/>
    <circle cx="618" cy="58" r="8" fill="#0f766e"/>
    <g transform="translate(186 84)">
      <rect width="404" height="112" rx="12" fill="#ffffff" stroke="#94a3b8"/>
      <rect x="16" y="16" width="104" height="80" rx="8" fill="#0f766e"/>
      <rect x="16" y="16" width="104" height="80" rx="8" fill="url(#glowA)" opacity=".85"/>
      <path d="M32 82c20-38 62-38 82 0z" fill="#ffffff" opacity=".45"/>
      <circle cx="48" cy="44" r="14" fill="#ffffff" opacity=".78"/>
      <circle cx="96" cy="74" r="9" fill="#ffffff" opacity=".78"/>
      <rect x="154" y="38" width="80" height="11" rx="6" fill="#0f766e"/>
      <rect x="154" y="66" width="210" height="13" rx="7" fill="#94a3b8" opacity=".58"/>
      <rect x="154" y="90" width="150" height="13" rx="7" fill="#94a3b8" opacity=".58"/>
    </g>
    <g transform="translate(58 214)" font-family="Inter, Arial, sans-serif">
      <g>
        <rect width="150" height="46" rx="8" fill="#f8fafc" stroke="#cbd5e1"/>
        <rect x="10" y="9" width="42" height="28" rx="5" fill="#0f766e" opacity=".72"/>
        <text x="64" y="29" font-size="13" font-weight="800" fill="#64748b">Fade up GIF</text>
      </g>
      <g transform="translate(164 0)">
        <rect width="150" height="46" rx="8" fill="#f8fafc" stroke="#cbd5e1"/>
        <rect x="10" y="9" width="42" height="28" rx="5" fill="#0f766e" opacity=".72"/>
        <text x="64" y="29" font-size="13" font-weight="800" fill="#64748b">Slide GIF</text>
      </g>
      <g transform="translate(328 0)">
        <rect width="150" height="46" rx="8" fill="#f8fafc" stroke="#cbd5e1"/>
        <rect x="10" y="9" width="42" height="28" rx="5" fill="#0f766e" opacity=".72"/>
        <text x="64" y="29" font-size="13" font-weight="800" fill="#64748b">Zoom GIF</text>
      </g>
      <g transform="translate(492 0)">
        <rect width="150" height="46" rx="8" fill="#f8fafc" stroke="#cbd5e1"/>
        <rect x="10" y="9" width="42" height="28" rx="5" fill="#0f766e" opacity=".72"/>
        <text x="64" y="29" font-size="13" font-weight="800" fill="#64748b">Flip GIF</text>
      </g>
    </g>
  </g>
</svg>
